<svg xmlns="http://www.w3.org/2000/svg" viewBox="0 0 300 80">
  <defs>
    <linearGradient id="grad1" x1="0%" y1="0%" x2="100%" y2="0%">
      <stop offset="0%" style="stop-color:#9333ea;stop-opacity:1" />
      <stop offset="100%" style="stop-color:#4f46e5;stop-opacity:1" />
    </linearGradient>
  </defs>
  
  <!-- Icon: Gavel -->
  <g transform="translate(10, 10) scale(0.6)">
    <path fill="url(#grad1)" d="M12.432 26.568c-1.562 1.562-4.095 1.562-5.657 0s-1.562-4.095 0-5.657l14.142-14.142c1.562-1.562 4.095-1.562 5.657 0s1.562 4.095 0 5.657l-14.142 14.142zm22.628-8.486c-1.562 1.562-4.095 1.562-5.657 0s-1.562-4.095 0-5.657l14.142-14.142c1.562-1.562 4.095-1.562 5.657 0s1.562 4.095 0 5.657l-14.142 14.142z"/>
    <path fill="#4f46e5" d="M11 65l-4-4 28-28 4 4-28 28z"/>
    <path fill="#9333ea" d="M45 45l-8 8-8-8 8-8 8 8z"/>
  </g>
  
  <!-- Text: EasyBid -->
  <text x="70" y="55" font-family="Arial, sans-serif" font-weight="bold" font-size="48" fill="#1e293b">Easy</text>
  <text x="185" y="55" font-family="Arial, sans-serif" font-weight="bold" font-size="48" fill="url(#grad1)">Bid</text>
</svg>
